<?xml version="1.0" encoding="UTF-8" standalone="no"?>
<!-- Created with Inkscape (http://www.inkscape.org/) -->

<svg
   version="1.1"
   id="svg1"
   width="409.95416"
   height="153.76624"
   viewBox="0 0 409.95416 153.76623"
   sodipodi:docname="finger.svg"
   inkscape:version="1.3 (0e150ed6c4, 2023-07-21)"
   xmlns:inkscape="http://www.inkscape.org/namespaces/inkscape"
   xmlns:sodipodi="http://sodipodi.sourceforge.net/DTD/sodipodi-0.dtd"
   xmlns="http://www.w3.org/2000/svg"
   xmlns:svg="http://www.w3.org/2000/svg">
  <defs
     id="defs1" />
  <sodipodi:namedview
     id="namedview1"
     pagecolor="#ffffff"
     bordercolor="#000000"
     borderopacity="0.25"
     inkscape:showpageshadow="2"
     inkscape:pageopacity="0.0"
     inkscape:pagecheckerboard="0"
     inkscape:deskcolor="#d1d1d1"
     inkscape:zoom="1.249565"
     inkscape:cx="-15.205291"
     inkscape:cy="5.2018102"
     inkscape:window-width="1440"
     inkscape:window-height="831"
     inkscape:window-x="0"
     inkscape:window-y="32"
     inkscape:window-maximized="1"
     inkscape:current-layer="g1" />
  <g
     inkscape:groupmode="layer"
     inkscape:label="Image"
     id="g1"
     transform="translate(-14.935326,-131.0364)">
    <path
       style="fill:none;fill-opacity:0.895165;stroke:#000000;stroke-width:2.4;paint-order:markers fill stroke"
       d="m 424.01383,272.62688 c -0.44751,0.47759 -0.85925,0.99139 -1.34248,1.43276 -0.80986,0.73969 -2.42897,0.59989 -3.36222,1.20385 -2.53752,1.64211 -5.77262,2.43515 -8.68212,3.47692 -1.25346,0.44878 -3.66454,1.84103 -5.06889,1.81492 -0.44975,-0.009 -0.85771,-0.34465 -1.30742,-0.33431 -0.6775,0.0156 -1.33879,0.3771 -2.01154,0.29519 -0.29605,-0.0362 -0.36454,-0.52129 -0.6465,-0.61855 -0.33571,-0.11583 -3.76121,-0.51293 -4.33097,-0.49806 -1.34506,0.0349 -2.87916,0.88325 -4.17684,1.09794 -1.5409,3.19878 -2.03078,-0.28545 -3.04169,-0.18607 -0.64198,0.0632 -1.17694,0.64669 -1.82201,0.65238 -1.07425,0.01 -2.36056,-1.11985 -3.58509,-1.12343 -0.66794,-0.002 -1.32279,0.67163 -1.99187,0.71321 -0.72125,0.0447 -1.45147,-0.18762 -2.16638,-0.0826 -0.6674,0.0982 -1.24705,0.53476 -1.90533,0.68219 -0.41153,0.0924 -0.84991,-0.046 -1.26503,0.0279 -2.05644,0.36928 -3.94479,1.89284 -6.01342,2.15311 -0.71264,0.0899 -1.43523,-0.0934 -2.15336,-0.0792 -0.42932,0.009 -1.14813,0.2578 -1.53691,0.15947 -1.18578,-0.29979 -2.08284,-1.08433 -3.23484,-1.22007 -0.44721,-0.0527 -1.14113,0.56823 -1.56059,0.55877 -2.03788,-0.046 -3.54419,-1.65014 -4.62006,-1.89282 -0.6809,-0.15361 -1.37266,0.34598 -2.06999,0.31618 -0.64198,-0.30345 -0.77764,-0.48899 -1.37508,-0.49722 -1.61552,-0.0222 -2.80354,0.55753 -4.47056,0.72414 -2.84731,0.28459 -5.55362,0.56081 -8.41367,0.91748 -0.43855,0.0548 -0.5204,0.36026 -1.02644,0.36751 -0.54535,0.008 -0.9524,-0.55836 -1.47929,-0.69925 -0.34456,-0.0921 -0.6507,0.36108 -1.00738,0.36067 -0.18863,-2.9e-4 -0.32297,-0.24232 -0.51159,-0.24183 -0.48435,0.002 -0.89048,0.40881 -1.36802,0.48983 -2.30341,0.3909 -4.48782,0.74544 -6.55814,0.99139 -1.00204,0.11903 -4.6806,-1.34074 -5.53057,-1.46999 -1.9722,-0.29995 -3.53022,0.19981 -5.45815,0.24236 -0.86887,0.0192 -0.85171,-0.59466 -1.60246,-0.79789 -0.86366,-0.23377 -1.78746,-0.14607 -2.66498,-0.32084 -0.65406,-0.13026 -1.25351,-0.48223 -1.91152,-0.59062 -2.34935,-0.387 -5.64577,0.29112 -7.85892,0.2824 -0.68143,-0.003 -1.34845,-0.22904 -2.02976,-0.24434 -0.0733,-0.002 -2.29687,0.60609 -2.67136,0.53148 -2.91422,-0.5809 -0.78189,-0.93077 -4.79095,-0.72336 -0.39962,0.0206 -0.73249,0.36032 -1.13017,0.40467 -0.17487,0.0191 -0.30171,-0.21158 -0.47705,-0.22549 -1.55183,-0.1235 -3.58831,0.15071 -4.93665,-0.18518 -0.36606,-0.0911 -0.65868,-0.38645 -1.02322,-0.48366 -0.34623,-0.0924 -0.65471,0.38824 -1.01214,0.36241 -0.77577,-0.0555 -1.51266,-0.39793 -2.28825,-0.45576 -0.54837,-0.0414 -1.09576,0.22857 -1.64177,0.16279 -0.37455,-0.045 -0.65824,-0.38818 -1.02321,-0.48367 -0.35644,-0.0933 -0.67224,0.36662 -1.04063,0.37261 -1.70286,0.0276 -3.94219,-0.43866 -5.69061,-0.49735 -0.12335,-0.004 -0.22323,-0.10556 -0.33484,-0.15832 -0.42315,-0.1053 -0.8342,-0.34342 -1.26943,-0.31625 -0.94255,0.0589 -1.83242,0.51903 -2.77549,0.56878 -1.39452,0.0735 -2.80264,-0.79434 -4.22173,-0.79458 -1.66753,-3e-4 -3.32062,0.65183 -4.9794,0.48105 -0.78731,-0.0811 -0.12709,-0.46128 -1.06093,-0.29113 -2.75159,0.50137 -5.95527,2.11892 -8.81644,2.73175 -0.62487,0.13381 -1.20162,-0.63827 -1.83517,-0.55455 -4.87869,0.6443 0.81426,1.87042 -6.37836,0.88873 -0.4352,-0.0594 -0.68379,-0.55543 -1.05775,-0.78583 -0.81586,-0.50273 -2.01922,-0.78048 -2.85913,-1.03564 -1.35983,-0.41008 -2.71966,-0.82017 -4.07949,-1.23028 -0.42469,0.0105 -0.85999,0.12614 -1.27405,0.0312 -0.12162,-0.0278 -0.0133,-0.29899 -0.12616,-0.35235 -0.35046,-0.1659 -0.75799,-0.16376 -1.137,-0.24562 -1.02321,-0.48368 -2.08084,-0.90035 -3.06961,-1.45102 -0.51353,-0.28598 -0.74927,-0.83508 -1.37743,-0.96408 -0.26283,-0.0541 -0.55866,0.0227 -0.79923,-0.0962 -0.26734,-0.1322 -0.43098,-0.41237 -0.64647,-0.61856 -0.51161,-0.24185 -1.00342,-0.53097 -1.53482,-0.72552 -0.4516,-0.16529 -0.96514,-0.14331 -1.39993,-0.34877 -0.12059,-0.0569 -0.0899,-0.25116 -0.13484,-0.37673 -0.34106,-0.16121 -0.65394,-0.40644 -1.02319,-0.48366 -0.38067,-0.0797 -0.78034,0.0723 -1.16647,0.0255 -1.52116,-0.18312 -2.57362,-1.37189 -4.2126,-1.3945 -0.69163,-0.0101 -1.36363,0.2465 -2.05319,0.30117 -1.56473,0.12417 -2.8383,-0.0163 -4.32193,-0.14995 -0.90436,-0.0814 -3.29797,-3.58868 -6.2696,-3.56805 -0.72304,0.005 -1.31913,0.72815 -2.04218,0.73121 -1.38504,0.006 -2.75602,-0.36257 -4.14094,-0.34349 -1.23505,0.0169 -2.94634,0.75868 -4.22584,0.70265 -3.06166,-0.13405 -5.84569,-0.0275 -8.86673,0.59215"
       id="path1" />
    <path
       style="fill:none;fill-opacity:0.895165;stroke:#000000;stroke-width:2.4;paint-order:markers fill stroke"
       d="m 416.84278,274.45596 c -0.45454,-0.43706 -1.00325,-0.79373 -1.36357,-1.31123 -0.26949,-0.38698 -0.25674,-0.91487 -0.47689,-1.3319 -0.34956,-0.66214 -1.20795,-1.14441 -1.56218,-1.84491 -0.42793,-0.84627 -0.51504,-2.1304 -1.04916,-2.93019 -0.0741,-0.11089 -0.24117,-0.11403 -0.36175,-0.17101 -0.18417,-0.23459 -0.40692,-0.44346 -0.55251,-0.70376 -0.9842,-1.75946 -1.83323,-3.5562 -3.06486,-5.20237 -1.14087,-1.5249 -2.71899,-3.02973 -3.53521,-4.78857 -0.53683,-1.15677 -0.6777,-2.63751 -1.3353,-3.72932 -0.40364,-0.67019 -0.91325,-1.27364 -1.30509,-1.9508 -0.51784,-0.89495 -0.69706,-1.94688 -1.04561,-2.92031 -0.88089,-2.46022 -1.62586,-5.05758 -2.6706,-7.45865 -0.34072,-0.78315 -0.77112,-1.52467 -1.12477,-2.30207 -0.11713,-0.25753 -0.11114,-0.57682 -0.28614,-0.79913 -0.21234,-0.26967 -0.63569,-0.32878 -0.82655,-0.61407 -0.50535,-0.75536 -1.00863,-2.73727 -1.69074,-3.88276 -0.76904,-1.29141 -1.10128,-3.07571 -1.60959,-4.49539 -1.51536,-4.23223 -3.03071,-8.46443 -4.54607,-12.69663 -0.73123,-2.04226 -1.46246,-4.08452 -2.19369,-6.12679 -0.22259,-0.62153 -0.31557,-1.30618 -0.66765,-1.86466 -0.27085,-0.42962 -0.7681,-0.69436 -1.00965,-1.14114 -0.76422,-1.4135 -1.29299,-3.61118 -1.83995,-5.13878 -1.30812,-3.6534 -2.61624,-7.30686 -3.92435,-10.96026 -2.09831,-5.86038 -4.19662,-11.72076 -6.29495,-17.58111 -0.967,-2.70074 -1.85792,-6.68391 -3.51852,-8.98754 -0.90022,-1.24881 -1.4522,-1.45174 -2.38597,-2.45144 -0.62023,-0.66399 -1.11696,-1.76051 -1.74821,-2.36445 -0.33559,-0.32109 -0.43535,-0.0511 -0.84232,-0.2273 -0.24564,-0.10644 -0.30234,-0.45449 -0.51686,-0.61462 -1.11811,-0.83489 -2.3224,-1.74986 -3.51906,-2.49015 -0.88826,-0.54949 -2.05788,-0.74678 -2.89406,-1.36801 -0.23942,-0.17787 -0.32185,-0.51472 -0.55252,-0.70377 -0.66191,-0.54248 -1.26562,-0.15563 -1.95538,-0.4817"
       id="path2" />
    <path
       style="fill:none;fill-opacity:0.895165;stroke:#000000;stroke-width:2.4;paint-order:markers fill stroke"
       d="m 396.2941,235.92594 c -1.02788,-0.89858 -2.25209,-1.87184 -3.0722,-2.98268 -0.44813,-0.607 -0.36022,-1.4932 -0.76303,-2.13105 -0.22706,-0.3592 -0.67405,-0.53531 -0.92195,-0.88045 -0.16607,-0.23128 -0.19192,-0.53609 -0.28795,-0.80412 -0.27954,-0.50099 -0.49822,-1.04115 -0.83866,-1.50292 -0.25028,-0.33949 -0.63374,-0.5598 -0.91425,-0.87475 -0.24501,-0.27508 -0.20003,-0.71495 -0.37253,-1.0404 -0.18054,-0.34057 -0.4748,-0.61408 -0.64436,-0.96027 -0.33027,-0.67444 -0.32299,-1.50994 -0.75942,-2.12106 -0.2427,-0.33979 -0.68197,-0.51353 -0.90402,-0.86713 -0.68381,-1.08894 -0.7203,-2.23003 -1.49279,-3.32983 -1.42267,-2.0256 -2.74812,-3.81326 -4.41534,-5.60751 -0.712,-0.1342 -0.42451,-0.87356 -0.74207,-1.23314 -0.87496,-0.99076 -0.75136,-0.14882 -1.35862,-1.29783 -0.57656,-1.09083 -0.57927,-2.76102 -1.33173,-3.71938 -0.20998,-0.26748 -0.60889,-0.34092 -0.8189,-0.60841 -0.53261,-0.67841 -0.79394,-1.80464 -1.22016,-2.56841 -0.38104,-0.68285 -1.04753,-0.82231 -1.39248,-1.43981 -0.92136,-1.64938 -1.73748,-6.26856 -2.66557,-7.44466 -0.16526,-0.2094 -0.50241,-0.19274 -0.72353,-0.342 -0.58645,-0.39593 -0.57533,-2.1273 -0.98263,-2.7444 -0.56033,-0.8489 -0.8269,-1.54591 -1.50818,-2.29141 -0.6246,-0.68352 -2.02097,-5.64436 -2.52785,-7.06002"
       id="path3" />
    <path
       style="fill:none;fill-opacity:0.895165;stroke:#000000;stroke-width:2.4;paint-order:markers fill stroke"
       d="m 372.90168,176.60729 c -0.60979,-1.80097 -1.17061,-2.68023 -2.43152,-3.88057 -0.4034,-0.38403 -0.47037,-1.30486 -0.92024,-1.74122 -0.2794,-0.27117 -0.77474,-0.23002 -1.05606,-0.4992 -0.13634,-0.13039 -0.0657,-0.39147 -0.19072,-0.53276 -0.22535,-0.25469 -0.57243,-0.3741 -0.81892,-0.6084 -0.762,0.0237 -0.37225,-0.65437 -0.6206,-0.93358 0.0846,-1.05444 -0.87272,-0.65879 -1.26687,-1.0359 -0.43953,-0.42053 -0.40592,-1.26071 -0.93224,-1.7643 -0.56528,-0.54087 -1.33889,-0.61069 -1.86384,-1.10229 -0.12608,-0.11801 -0.11642,-0.32513 -0.17457,-0.48769 -0.13945,-0.13349 -0.26269,-0.28634 -0.41844,-0.40041 -0.21521,-0.15759 -0.5588,-0.13212 -0.72353,-0.342 -0.26827,-0.34171 -0.18987,-1.00627 -0.47687,-1.33189 -0.2221,-0.25187 -0.60182,-0.33626 -0.80868,-0.60079 -0.61549,-0.78704 -1.74439,-4.87189 -2.20191,-6.14967"
       id="path4" />
    <path
       style="fill:none;fill-opacity:0.895165;stroke:#000000;stroke-width:2.4;paint-order:markers fill stroke"
       d="m 361.73142,162.48402 c -0.42879,0.0679 -0.86923,0.0837 -1.28641,0.20404 -4.21895,1.21682 -1.87507,0.8047 -5.79563,0.33018 -1.34988,-0.1633 -0.49225,0.22798 -2.00069,0.12941 -2.21963,-0.14535 0.0792,-0.23159 -1.7134,-0.58861 -0.29252,-0.058 -0.60956,0.10781 -0.89453,0.0199 -0.85957,-0.26563 -6.09717,-2.98942 -6.76468,-2.97636 -0.18621,0.004 -0.33988,0.18428 -0.5261,0.18838 -0.66203,0.0142 -1.63967,-0.57816 -2.33701,-0.66211 -2.87836,-0.34654 0.93558,0.25561 -1.65581,0.29232 -0.88503,0.0126 -1.71079,-0.50419 -2.59344,-0.57032 -2.83012,-0.21206 0.57583,0.55975 -2.41067,-0.0361 -0.76586,-0.15286 -1.05772,-0.51222 -1.76977,-0.84872 -0.6149,-0.29057 -1.31985,-0.32881 -1.97979,-0.49322"
       id="path5" />
    <path
       style="fill:none;fill-opacity:0.895165;stroke:#000000;stroke-width:2.4;paint-order:markers fill stroke"
       d="m 333.99198,179.61632 c -0.43203,-1.20664 0.0737,0.0555 -0.86271,-1.56228 -0.33129,-0.57228 -0.5625,-1.5858 -0.89622,-2.08334 -0.74329,-1.10698 -1.73554,-2.12692 -2.85448,-2.90414 -0.71751,-0.49838 -1.57036,-1.01224 -2.33257,-1.4375 -0.17473,-0.0974 -0.39063,-0.12643 -0.54263,-0.25651 -0.14778,-0.12639 -0.19832,-0.33668 -0.32397,-0.48506 -0.36453,-0.43053 -0.82597,-0.79612 -1.1905,-1.22665 -0.51814,-0.61189 -0.88412,-1.25542 -1.2958,-1.94029 -0.33761,-0.56168 -0.99083,-0.9095 -1.28591,-1.49302 -0.10637,-0.21044 -0.0929,-0.48051 -0.23848,-0.66596 -0.30138,-0.3839 -1.40502,-0.96527 -1.77097,-1.16907 -0.90612,-0.50463 0.0263,-0.0729 -0.68573,-0.65608 -0.31375,-0.25715 -0.67413,-0.45199 -0.99976,-0.6939 -0.26563,-0.19733 -0.51134,-0.61393 -0.7334,-0.78925 -0.15702,-0.12399 -0.39063,-0.12644 -0.54263,-0.25652 -0.45569,-0.38993 -0.75843,-1.09234 -1.15759,-1.5462 -1.21866,-1.38572 -2.82917,-2.28866 -4.26007,-3.41196 -0.41605,-0.32662 -0.75127,-0.75839 -1.14283,-1.09346 -0.62525,-0.53506 -3.40732,-2.14647 -4.16067,-2.29869 -0.42562,-0.086 -0.95247,-0.0266 -1.38947,-0.10366 -0.46189,-0.0818 -0.99276,-0.22042 -1.43714,-0.23674 -0.19431,-0.006 -0.38912,0.091 -0.58044,0.0575 -0.19705,-0.0349 -0.34852,-0.20812 -0.54264,-0.2565 -0.30698,-0.0766 -0.63076,-0.0578 -0.94221,-0.11346 -0.006,-2.2e-4 -0.94576,-0.007 -1.07207,-0.0672 -0.0952,-0.0452 -0.14394,-0.15583 -0.22856,-0.21872 -0.3301,-0.24523 -0.0278,0.0609 -0.44725,0.01 -0.23631,-0.0283 -0.44597,-0.18203 -0.68227,-0.21079 -0.331,-0.0402 -0.6472,0.22095 -0.98001,0.20064 -0.13315,-0.007 -0.22934,-0.15507 -0.36176,-0.17101 -0.0937,-0.0106 -0.17213,0.0988 -0.26636,0.0954 -0.75163,-0.0272 -0.22679,-0.24263 -0.94221,-0.11357 -0.60508,0.10922 -1.24163,0.24354 -1.87455,0.22037 -0.31612,-0.0115 -0.62592,-0.10834 -0.94222,-0.11356 -0.5912,-0.009 0.009,0.22297 -0.44166,0.01"
       id="path6" />
    <path
       style="fill:none;fill-opacity:0.895165;stroke:#000000;stroke-width:2.4;paint-order:markers fill stroke"
       d="m 329.11987,157.4332 c -0.2147,0.0277 -0.42868,0.10291 -0.64409,0.0828 -1.46861,1.39773 -0.46003,-0.28035 -0.71907,-0.32953 -2.1733,-0.41261 -0.88281,-0.0104 -2.53522,-0.30114 -1.00341,-0.17693 -1.46837,-0.37256 -2.46034,-0.49649 -0.60987,-0.13109 -1.23754,-0.0225 -1.85088,-0.0967 -0.0662,-0.008 -0.11453,-0.0919 -0.18087,-0.0855 -0.13907,0.0134 -0.2549,0.14365 -0.3946,0.14121 -0.27491,-0.005 -0.53425,-0.15106 -0.80903,-0.16112 -0.24026,-0.009 -0.47368,0.0896 -0.71364,0.10526 -0.51461,0.0335 -0.12971,-0.16834 -0.75731,-0.0274 -0.23008,0.0515 -0.43393,0.19656 -0.66594,0.2385 -1.30856,0.23631 -2.23725,0.0497 -3.52936,0.51234"
       id="path7" />
    <path
       style="fill:none;fill-opacity:0.895165;stroke:#000000;stroke-width:2.4;paint-order:markers fill stroke"
       d="m 330.92523,157.94979 c -0.27385,-0.0931 -0.54767,-0.186 -0.82152,-0.27904 -0.0878,0.0316 -0.17136,0.11041 -0.26302,0.0942 -0.68157,-0.12106 -1.37633,-0.55141 -2.10846,-0.44344 -0.41202,0.0602 -0.78867,0.35515 -1.19869,0.42921 -0.44322,0.0801 -0.90486,-0.12675 -1.3332,0.0265"
       id="path8" />
    <path
       style="fill:none;fill-opacity:0.895165;stroke:#000000;stroke-width:2.4;paint-order:markers fill stroke"
       d="m 314.70997,156.50247 c -0.97623,-0.99982 -0.75941,-0.0646 -1.52146,-0.15588 -0.72315,-0.087 -0.0817,-0.27128 -0.99709,0.0564"
       id="path9" />
    <path
       style="fill:none;fill-opacity:0.895165;stroke:#000000;stroke-width:2.4;paint-order:markers fill stroke"
       d="m 297.50623,182.68206 c -0.0183,-1.72493 -0.71265,-2.97128 -1.43174,-4.48212 -0.086,-0.18067 -0.0729,-0.41254 -0.20236,-0.56506 -0.25395,-0.29923 -0.6567,-0.44711 -0.91066,-0.74632 -0.12949,-0.15255 -0.0856,-0.40264 -0.20234,-0.56509 -0.17566,-0.24439 -0.49159,-0.36975 -0.65237,-0.62415 -0.17813,-0.28188 -0.19085,-0.64219 -0.33719,-0.9418 -0.29127,-0.59601 -0.90844,-1.15232 -1.24496,-1.68532 -0.3234,-0.51223 -0.53131,-1.08884 -0.79726,-1.63312 -0.16971,-0.34724 -0.37663,-1.26297 -0.53951,-1.50687 -0.13356,-0.19996 -0.43892,-0.2348 -0.57905,-0.43019 -0.45274,-0.63134 -0.32378,-1.42427 -0.93022,-2.00453 -0.72837,-0.69686 -1.65546,-1.21414 -2.38364,-1.90915 -0.32149,-0.3068 -0.78928,-0.77667 -1.2206,-1.04244 -1.78675,-1.10091 0.18865,0.24567 -1.46737,-0.53713 -0.77233,-0.36508 -1.12794,-0.78277 -1.76174,-1.3022 -0.39406,-0.32297 -0.92368,-0.51386 -1.34644,-0.79294 -0.54957,-0.3628 -0.89746,-0.9825 -1.36042,-1.42548 -0.17375,-0.16623 -0.41536,-0.25404 -0.57904,-0.4302 -0.57896,-0.13848 -0.34226,-0.72894 -0.58662,-1.04489 -0.14254,-0.18429 -0.41367,-0.23786 -0.55841,-0.42042 -0.6055,-0.7637 -0.18386,-1.30454 -1.43674,-1.76371 -0.39721,-0.14558 -0.77952,-0.35984 -1.19871,-0.41687 -0.22543,-0.0306 -3.16412,0.97843 -3.52586,1.26242 -0.52436,0.41167 -0.72501,1.10099 -1.08069,1.63979 -0.18526,0.28065 -0.8972,0.7724 -0.92212,0.96377 -0.0857,0.65865 0.0239,1.22216 0.04,1.83989 0.0253,0.99138 -0.2094,0.63893 -0.083,1.50021 0.0579,0.39344 0.26806,0.74874 0.40213,1.1231 0.5108,1.42662 0.77319,2.43742 2.21813,3.22743 0.44428,0.24288 3.14418,0.66712 3.80353,0.54804 0.60011,-0.1084 4.3935,-1.41922 4.89029,-1.75096 0.64699,-0.4321 0.6696,-1.38174 0.95315,-1.9973 6.4e-4,-9.4e-4 0.33726,-0.11963 0.33906,-0.1214 0.18413,-0.20102 0.28798,-1.115 0.20046,-1.35937"
       id="path10" />
    <path
       style="fill:none;fill-opacity:0.895165;stroke:#000000;stroke-width:2.4;paint-order:markers fill stroke"
       d="m 297.41067,152.4255 c -0.70266,-0.0236 -1.40561,-0.10134 -2.10797,-0.0706 -1.66804,0.0734 -3.40279,1.00586 -4.96479,1.56513 -2.88662,1.03356 -5.77324,2.06712 -8.65984,3.10066"
       id="path11" />
    <path
       style="fill:none;fill-opacity:0.895165;stroke:#000000;stroke-width:2.4;paint-order:markers fill stroke"
       d="m 284.47796,156.09501 c -2.04465,0.73209 -4.08927,1.46417 -6.1339,2.19627"
       id="path12" />
    <path
       style="fill:none;fill-opacity:0.895165;stroke:#000000;stroke-width:2.4;paint-order:markers fill stroke"
       d="m 292.55588,153.21381 c -2.60584,-0.54998 0.64918,-0.0128 -2.46457,0.0562 -0.52876,0.0119 -0.86654,-0.6395 -1.45793,-0.53269 -0.26253,0.0473 -0.4921,0.21627 -0.75345,0.26973 -0.8366,0.17134 -1.67808,-0.13485 -2.52301,0.0537 -0.32545,0.0725 -0.60998,0.30431 -0.9418,0.33721 -0.64866,0.0644 -1.48078,-0.4382 -2.09989,-0.52318 -0.45315,-0.0622 -1.32408,-0.063 -1.80965,0.0289 -0.19416,0.0366 -0.3614,0.18075 -0.55808,0.19984 -0.0577,0.005 -0.39595,-0.21474 -0.4699,-0.22212 -0.46417,-0.0461 -2.05751,0.73671 -2.5283,0.90527 -0.62124,0.22241 -1.56549,0.49583 -1.83363,1.06301"
       id="path13" />
    <path
       style="fill:none;fill-opacity:0.895165;stroke:#000000;stroke-width:2.4;paint-order:markers fill stroke"
       d="m 281.2276,187.15456 c -0.15261,-0.2711 -0.23369,-0.59768 -0.45795,-0.81323 -0.3592,-0.34507 -4.10651,-0.24427 -4.8414,-1.0352 -0.1816,-0.19541 -0.13974,-0.52051 -0.26973,-0.75344 -0.32743,-0.58677 -0.83717,-0.17949 -1.41386,-0.98128 -0.11541,-0.1604 -0.10751,-0.38343 -0.19983,-0.55812 -0.76493,-1.44642 -0.17702,0.15865 -1.23951,-1.68128 -0.16667,-0.28877 -0.18673,-0.64423 -0.33722,-0.94178 -0.34167,-0.67571 -0.89881,-1.22029 -1.30357,-1.8602 -0.46737,-0.73892 -0.34354,-1.82102 -1.07612,-2.41199 -0.13441,-0.10834 -0.32983,-0.11832 -0.46839,-0.22139 -0.0494,-0.0368 -0.0413,-0.11554 -0.062,-0.17328 -0.12403,-0.15806 -0.20347,-0.36506 -0.37221,-0.4741 -0.14268,-0.0921 -1.95455,-0.682 -2.08602,-0.67313 -0.26614,0.0181 -0.48702,0.25584 -0.75344,0.26975 -0.0837,0.006 -3.79537,-0.41916 -3.94755,-0.47167 -0.65072,-0.22441 -1.05394,-0.95144 -1.54387,-1.35175 -0.14608,-0.11932 -0.37447,-0.11245 -0.5116,-0.24183 -0.23472,-0.22169 -0.23949,-0.63859 -0.4996,-0.82978 -0.14706,-0.10808 -0.36339,-0.10764 -0.49505,-0.23402 -0.22154,-0.21272 -1.08292,-2.78837 -1.11181,-3.10516 -0.0399,-0.43689 0.26439,-0.97612 0.34879,-1.39992 0.0602,-0.30144 0.0447,-1.71759 0.14456,-1.9248 0.28013,-0.5798 1.92384,-0.90134 2.38122,-1.0651 1.29596,-0.46404 2.8198,-1.29857 4.18362,-1.49795 0.3576,-0.0523 0.72576,0.0937 1.08331,0.0408 1.03076,-0.15113 2.13985,-0.76619 3.13729,-1.12333 0.16739,-0.0599 -0.24076,0.2685 -0.31677,0.42925"
       id="path14" />
    <path
       style="fill:none;fill-opacity:0.895165;stroke:#000000;stroke-width:2.4;paint-order:markers fill stroke"
       d="m 259.65955,165.58436 c -0.44173,0.0873 -0.87863,0.32097 -1.32517,0.2619 -0.7429,-0.0976 -1.80655,-0.93409 -2.55802,-1.20917 -0.45159,-0.1653 -0.99856,-0.084 -1.39989,-0.34877 -1.54997,-1.02317 -0.29025,-0.89386 -1.91676,-1.22095 -2.16205,-0.43477 -0.53803,-0.0579 -2.54227,0.048 -0.50717,0.0269 -1.02072,-0.004 -1.52084,-0.093 -0.32833,-0.0582 -0.62236,-0.29032 -0.95576,-0.2953 -0.26677,-0.004 -0.48727,0.2523 -0.75345,0.26972 -1.73703,0.11398 -0.11174,-0.19366 -0.95578,-0.29529 -0.20936,-0.0252 -0.44153,0.10271 -0.6325,0.0145 -0.37191,-0.17361 -0.87066,-1.24501 -1.15945,-1.4579 -0.376,-0.27713 -0.83057,-0.43224 -1.26697,-0.59888 -1.32194,-0.50481 -1.79619,-0.47827 -3.17655,-0.56267 -0.34788,-0.0202 -2.84598,-0.80631 -3.32038,-0.94049 -0.31908,-0.0903 -0.64701,-0.16027 -0.95019,-0.29461 -0.17154,-0.076 0.0152,-0.17894 -0.093,-0.2598 -0.36451,-0.27419 -0.89428,-0.3274 -1.26248,-0.5968 -0.29829,-0.2182 -0.92937,-1.1347 -1.3806,-0.97315 -0.16947,-0.37513 -0.25967,-0.79735 -0.50841,-1.12534 -0.4737,-0.6248 -1.23343,-0.96995 -1.81888,-1.4915 -1.29905,-1.15725 -3.71153,-2.93632 -5.48597,-3.37841 -0.69996,-0.1744 -1.38371,-0.43695 -2.0999,-0.52318 -0.41876,-0.0503 -0.85287,0.11837 -1.26505,0.0279 -0.23492,-0.0512 -0.35038,-0.35577 -0.57904,-0.4302 -0.91165,-0.29679 -1.88026,-0.37894 -2.82733,-0.52818 -0.4419,-0.0696 -0.88541,-0.14398 -1.33249,-0.16042 -0.27478,-0.01 -0.56083,0.17076 -0.82086,0.0815 -0.19946,-0.0686 -0.23042,-0.36051 -0.39068,-0.49762 -0.25336,-0.2168 -0.58416,-0.33127 -0.83485,-0.55112 -1.10661,-0.97029 -1.74918,-2.38181 -3.0441,-3.16021 -1.82127,-1.09479 -3.83527,-0.97743 -5.89572,-0.8859 -0.27468,0.0127 -0.5479,0.11429 -0.82088,0.0815 -0.47965,-0.058 -0.9297,-0.27198 -1.40646,-0.35043 -0.4198,-0.0691 -0.66037,0.18165 -0.97474,0.13639 -0.65875,-0.0945 -1.52133,-1.08085 -2.21852,-1.04869 -0.1161,0.005 -0.21322,0.13451 -0.32815,0.11742 -0.18657,-0.0277 -0.32438,-0.21882 -0.5116,-0.2418 -0.67585,-0.0832 -2.90506,0.83156 -3.76845,1.14068"
       id="path15" />
    <path
       style="fill:none;fill-opacity:0.895165;stroke:#000000;stroke-width:2.4;paint-order:markers fill stroke"
       d="m 217.54939,176.88391 c -0.99734,-1.85795 -1.22141,-5.32768 -2.6088,-6.99596 -0.24863,-0.299 -0.62109,-0.47088 -0.90229,-0.73945 -0.23993,-0.22919 -0.18058,-0.64375 -0.33553,-0.93712 -0.19705,-0.37293 -0.57585,-0.62696 -0.78138,-0.99527 -0.25997,-0.46589 -0.30529,-1.02754 -0.53955,-1.50688 -0.6005,-1.22856 -1.3527,-1.38132 -2.26019,-2.1579 -0.16022,-0.1371 -0.21744,-0.37737 -0.39067,-0.49762 -0.52488,-0.40686 -1.24773,-0.47073 -1.79061,-0.84643 -0.24312,-0.16823 -0.38958,-0.45777 -0.64164,-0.61232 -0.80345,-0.4927 -3.47284,-0.21873 -4.07883,-1.30215 -0.12891,-0.2306 -0.17817,-0.49749 -0.26717,-0.74626 -0.23505,-0.26564 -0.4977,-0.50917 -0.7051,-0.79691 -0.30006,-0.41627 -0.49737,-1.50421 -0.66429,-1.8553 -0.40621,-0.85418 -0.60427,-0.65044 -1.17205,-1.49293 -0.10657,-0.15806 -0.0687,-0.39366 -0.19281,-0.5384 -0.69169,-0.80716 -3.10994,-1.96444 -4.21829,-2.30692 -0.64472,-0.19923 -0.30766,0.11332 -1.07668,-0.0396 -0.18503,-0.0368 -0.32865,-0.19587 -0.51161,-0.24183 -0.0996,-0.025 -4.51286,1.57432 -4.57436,1.63787 -0.15613,0.16125 -0.27838,0.35294 -0.40158,0.54056 -0.41763,0.63594 -0.0658,1.30215 -0.14529,1.96258 -0.0398,0.33107 -0.2549,0.62477 -0.29531,0.95578 -0.0157,0.13078 0.13789,0.24037 0.13318,0.372 -0.009,0.23798 -0.15724,0.45586 -0.17138,0.69356 -0.0114,0.19482 0.29899,1.15326 0.25492,1.30552 -0.17999,0.62227 -0.19751,0.50794 0.0224,1.12308"
       id="path16" />
    <path
       style="fill:none;fill-opacity:0.895165;stroke:#000000;stroke-width:2.4;paint-order:markers fill stroke"
       d="m 195.68632,144.57155 c -2.43116,0.54496 -4.3915,-0.83724 -6.59164,-1.64262 -1.2126,-0.44389 -0.23306,-0.001 -1.14411,-0.22787 -0.40313,-0.10045 -0.9226,-0.4677 -1.26956,-0.60013 -0.39896,-0.15223 -0.86878,-0.16151 -1.21157,-0.41622 -0.17631,-0.13097 -0.32446,-0.39954 -0.57904,-0.43016 -0.37966,-0.0458 -0.59712,0.13164 -0.88833,-0.10692 -0.49518,-0.40583 -1.06872,-1.12405 -1.73715,-1.2906 -0.14472,-0.036 -0.30932,0.0107 -0.44415,-0.0535 -0.53978,-0.25515 -0.91611,-0.60229 -1.53483,-0.72551 -0.35144,-0.0701 -0.72693,0.0475 -1.07432,-0.0405 -0.61846,-0.15662 -1.23939,-0.58143 -1.90919,-0.59144 -0.34001,-0.005 -0.66965,0.13102 -1.0092,0.14889 -1.97341,0.10345 -0.17432,-0.13958 -2.22081,-0.26736 -0.84855,-0.0534 -2.19316,0.7587 -3.07651,0.88903 -0.4172,0.062 -0.84775,-0.0336 -1.26503,0.0279 -1.9685,0.29032 0.0423,0.19205 -1.13015,0.40464 -0.26721,0.0485 -0.54331,0.0324 -0.8106,0.0804 -0.17044,0.0305 -0.78867,0.32711 -0.89868,0.32176 -0.1884,-0.009 -0.32912,-0.19407 -0.51158,-0.24182 -0.22582,-0.059 -1.66873,0.59749 -1.78261,0.63827 -0.22046,0.0789 -1.16575,0.27379 -1.29885,0.46506 -0.0382,0.0547 0.67304,0.41022 1.01844,1.0292 0.3795,0.68007 0.79149,1.50027 1.37438,2.058 0.13635,0.13037 0.37532,0.11147 0.51161,0.24182 0.1869,0.17882 0.33703,0.66122 0.52557,0.87435 0.29644,0.33508 0.76089,0.5322 0.96972,0.92784 0.80974,1.53379 1.23832,3.45845 1.82097,5.0857 0.26866,0.75029 0.34077,1.6038 0.80592,2.25089 0.1726,0.24001 0.45888,0.37986 0.64155,0.6123 0.12603,0.16021 0.45393,0.98703 0.71751,0.9494 0.12173,-0.0171 -0.63718,-2.14074 -0.71883,-2.31671 -0.22638,-0.48771 -0.51108,-0.94744 -0.72792,-1.43943 -0.26897,-0.61026 -0.2858,-1.34164 -0.67441,-1.8836 -0.14009,-0.19542 -0.41972,-0.25012 -0.57907,-0.43021 -0.29439,-0.33273 -0.41709,-1.05519 -0.71482,-1.40293 -0.21572,-0.25201 -0.62528,-0.28796 -0.83016,-0.5489 -0.43701,-0.55667 -0.24844,-1.33549 -1.02554,-1.7028 -0.37724,-0.17833 -1.17766,-0.41629 -1.5127,-0.71506 -1.26824,-1.13102 -2.9076,-2.23969 -4.64786,-2.30353 -1.0023,-0.037 -1.70288,0.59838 -2.6581,0.73927 -0.35524,0.0528 -0.72233,-0.0978 -1.07667,-0.0396 -0.58971,0.0972 -1.12539,0.40293 -1.68808,0.6044 -0.70604,0.25281 -2.73931,1.34275 -3.53944,0.96461 -0.12608,-0.0595 0.25211,0.11916 0.37814,0.17872 0.2558,0.12097 0.52651,0.21434 0.76741,0.36277 0.48842,0.30095 0.93513,0.66525 1.4139,0.98128 0.34177,0.22563 0.86788,0.33908 1.08661,0.66817 0.11079,0.16661 0.0788,0.40771 0.20232,0.56507 0.14846,0.18916 0.40533,0.26396 0.57907,0.43019 0.15236,0.14581 0.20717,0.39379 0.39069,0.49763 0.20176,0.11412 1.71665,0.41548 2.01265,0.79058 0.20555,0.26045 0.16414,0.65284 0.33555,0.9371 0.24331,0.40485 0.85258,0.5163 1.15808,0.86037 0.37236,0.41937 -0.17389,0.38286 0.45233,0.67732 1.00207,0.47116 -0.19087,-0.66266 1.02278,0.48345 0.47109,0.4449 0.51983,1.62686 0.98208,2.14931 0.22095,0.24973 0.64943,0.27395 0.83482,0.55112 0.11088,0.16559 0.0725,0.41088 0.20148,0.56275 0.64493,0.7593 1.84741,1.63018 2.56268,2.43716 0.72453,0.81752 0.89319,2.16301 1.33233,3.12758 0.18093,0.39749 1.45019,2.35739 1.81653,2.70673 0.13647,0.13017 0.3866,0.10067 0.51161,0.24183 0.26346,0.29778 0.11376,0.8489 0.4021,1.12301 0.20493,0.19508 0.52313,0.21995 0.76739,0.36275 0.60717,0.35489 1.08816,0.90077 1.69483,1.25653 0.0575,0.0337 0.12463,-0.087 0.18835,-0.0673 0.35654,0.11021 0.64656,0.40366 1.01217,0.47845 0.43323,0.0888 0.88706,0.0594 1.31614,0.1662 0.56865,0.14166 0.48158,0.62462 1.24079,0.58048 1.03648,-0.0604 2.37308,-0.98799 3.61959,-1.08351 0.23714,-0.0183 0.45325,0.1811 0.69107,0.17756 0.33281,-0.005 6.25386,-2.13776 6.54867,-2.34476 0.15719,-0.11035 0.2751,-0.27425 0.44134,-0.37053 0.15927,-0.0923 0.39257,-0.0538 0.51992,-0.18615 0.0948,-0.0991 -0.0108,-0.28546 0.0493,-0.40869 0.0914,-0.18662 0.87167,-1.54414 1.07543,-1.61709"
       id="path17" />
    <path
       style="fill:none;fill-opacity:0.895165;stroke:#000000;stroke-width:2.4;paint-order:markers fill stroke"
       d="m 183.86545,269.82263 c -0.12489,-0.34874 -0.0605,-0.84988 -0.3746,-1.04621 -0.9532,-0.59581 -2.13186,-0.7214 -3.16436,-1.16584 -3.66249,-1.57657 2.94096,0.65759 -2.20414,-1.20211 -0.25756,-0.093 -2.49759,-0.50332 -2.97025,-1.03754 -0.70071,-3.3e-4 -0.31554,-0.60691 -0.52555,-0.87437 -0.0668,-0.0851 -0.3919,-0.27423 -0.3832,-0.47666 0.009,-0.20175 -0.0329,-0.46839 0.12633,-0.59229 0.26324,-0.20471 0.62786,-0.22485 0.94179,-0.33723 0.51546,-0.53873 1.04357,-1.06566 1.54639,-1.6162 0.28114,-0.30788 1.11405,-1.44476 1.73984,-1.68901 0.12186,-0.0478 2.98828,1.30939 3.37874,1.44354 0.14748,0.0508 2.93077,-0.18653 3.12762,-0.257 0.24957,-0.0894 0.48489,-0.24213 0.74872,-0.26807 0.29683,-0.029 0.5901,0.10212 0.88832,0.10682 0.40787,0.006 2.25977,-0.38476 2.32602,0.008 0.0417,0.24718 -0.47195,0.16902 -0.70793,0.25347 -0.77345,0.27693 -1.53936,-0.10168 -2.28826,-0.45571 -1.09481,-0.51753 -2.23563,-1.36004 -2.95714,-2.33867 -0.11872,-0.16104 -0.0583,-0.42671 -0.20233,-0.56507 -0.20443,-0.19559 -0.53129,-0.20687 -0.76741,-0.36277 -0.32452,-0.21422 -0.56256,-0.55026 -0.90229,-0.73946 -1.01728,-0.56655 -3.31504,-0.1859 -4.56253,-0.27897 -0.2398,-0.0184 -0.46018,-0.15652 -0.69997,-0.17441 -0.14908,-0.0106 -1.65425,0.0912 -1.90909,-0.13294 -0.31699,-0.27823 -0.51203,-0.67067 -0.78136,-0.99526 -1.03198,-1.24379 -2.26767,-2.32562 -3.66895,-3.12484 -1.01438,-0.57856 -1.03366,-0.68848 -2.00337,-0.34126 -0.124,0.0444 -0.24125,0.14921 -0.37201,0.13321 -0.331,-0.0404 -0.62998,-0.22426 -0.95576,-0.29532 -0.2914,-0.0635 -0.60141,-0.025 -0.88833,-0.10682 -1.13181,-0.32107 -0.44212,-0.67453 -1.21978,-1.04015 -0.13497,-0.0635 -0.30919,0.01 -0.44417,-0.0535 -0.0957,-0.0448 -0.7015,-1.95921 -0.7992,-2.23211 -0.32952,-0.92028 -0.77059,-1.86351 -1.00582,-2.80907 -0.32284,-0.51852 -0.0525,-1.103 -0.16277,-1.64177 -0.054,-0.26123 -0.25233,-0.48725 -0.26974,-0.75344 -0.0159,-0.23998 0.14563,-0.46123 0.17439,-0.69998 0.068,-0.56572 0.0378,-1.13954 0.0258,-1.70922 -0.018,-0.85991 -0.66456,-1.68994 -0.6825,-2.49959 -0.0215,-0.95835 0.35921,-0.66447 -0.23023,-1.83015 -0.21283,-0.42079 -0.38067,-0.87148 -0.66047,-1.25106 -1.4406,-1.95405 0.1723,0.97553 -0.96569,-0.92396 -0.0686,-0.11441 -0.0899,-0.25117 -0.13482,-0.37673 -0.13481,-0.37672 -0.19417,-0.78997 -0.40465,-1.13014 -0.33128,-0.53442 -1.70533,-1.92661 -2.1477,-2.42638 -1.00866,-1.13955 -1.96953,-2.13376 -3.04408,-3.16024 -0.35528,-0.33936 -0.30385,-1.33332 -0.60453,-1.68837 -0.18289,-0.21591 -0.57482,-0.15549 -0.7674,-0.36275 -0.1816,-0.19543 -0.12593,-0.5289 -0.26976,-0.75345 -0.85305,-1.32907 -2.0296,-2.30937 -3.02696,-3.52602 -0.67742,-0.82633 -0.63002,-1.95713 -1.21389,-2.77124 -0.14019,-0.19538 -0.43056,-0.24106 -0.57906,-0.43018 -0.67982,-0.86596 -0.59528,-2.25606 -0.94625,-3.23632"
       id="path18" />
    <path
       style="fill:none;fill-opacity:0.895165;stroke:#000000;stroke-width:2.4;paint-order:markers fill stroke"
       d="m 181.61662,268.7467 c 0.35145,0.13853 0.68366,0.3429 1.05435,0.4156 0.13089,0.0257 0.25117,-0.0899 0.37674,-0.13484 0.14804,0.0178 0.29933,0.0184 0.44409,0.0535 10e-5,3e-5 0.51143,0.2418 0.51152,0.2418 0.33975,0.0414 0.72475,0.009 1.0275,0.0541 0.51917,0.078 -0.0959,0.21665 0.55501,0.41878 0.20059,0.0623 0.42148,-0.0383 0.63002,-0.0133 0.38419,0.0466 0.7516,0.22153 1.13855,0.2272 0.20007,0.003 0.37674,-0.13484 0.56509,-0.20236 0.29611,0.0358 0.59221,0.0712 0.88833,0.10682"
       id="path19" />
    <path
       style="fill:none;fill-opacity:0.895165;stroke:#000000;stroke-width:2.4;paint-order:markers fill stroke"
       d="m 181.52748,256.30525 c 0.47839,-0.90266 1.61657,-0.68174 2.22086,-1.38796 0.27764,-0.32445 0.37681,-0.78209 0.67203,-1.09062 0.24829,-0.25949 0.5734,-0.44108 0.80692,-0.71394 0.38043,-0.4446 0.43948,-1.11801 0.61574,-1.62961 0.18756,-0.54433 0.72395,-1.37769 1.03479,-1.85807 0.57051,-0.88159 2.98614,-1.14597 3.24601,-1.58723 0.2167,-0.36797 0.25671,-0.81547 0.41623,-1.21158 0.14093,-0.34994 0.3723,-0.66278 0.48367,-1.0232 0.0881,-0.28495 -0.0201,-0.61871 0.10692,-0.88833 0.0901,-0.19067 0.4319,-0.19029 0.49764,-0.3907 0.0596,-0.18111 -0.21742,-0.34937 -0.19281,-0.53841 0.0363,-0.28057 0.29407,-0.49295 0.36273,-0.76742 0.0483,-0.19278 0.0237,-1.30103 0.25178,-1.4927 0.20411,-0.17178 0.52049,-0.13984 0.75345,-0.26974 0.13023,-0.0726 0.17908,-0.2506 0.30929,-0.32325 1.08946,-0.60793 1.57172,-0.32892 1.66891,-1.87853 0.0418,-0.66707 -0.53653,-1.48071 -0.54995,-2.12943 -0.004,-0.18858 0.24601,-0.32302 0.24185,-0.51159 -0.0173,-0.79437 -1.50305,-4.19785 -1.81078,-5.05732 -0.21724,-0.60659 -0.45549,-2.01497 -0.85713,-2.39385 -0.90522,-0.854 -1.91039,-1.63618 -2.49011,-2.78255 -0.1204,-0.23805 -0.12144,-0.53164 -0.26974,-0.75346 -0.40245,-0.60264 -0.60686,-0.47188 -0.96973,-0.92783 -0.18868,-0.23718 -0.2961,-0.94749 -0.39591,-1.10578 -0.19154,-0.30382 -0.52242,-0.50311 -0.71394,-0.80692 -0.14226,-0.22567 -0.1453,-0.51752 -0.26974,-0.75345 -0.0984,-0.18651 -0.28784,-0.31352 -0.39069,-0.49764 -0.29146,-0.52183 -0.32522,-1.1597 -0.60444,-1.68817 -0.0151,-0.0284 -0.44013,-0.18981 -0.47541,-0.22472 -0.31454,-0.31114 -0.49539,-0.82579 -0.83468,-1.14421 -0.0687,-0.0645 -0.19757,-0.0466 -0.25582,-0.12096 -0.0823,-0.10489 -0.0237,-0.30323 -0.13483,-0.37673 -0.20064,-0.13246 -0.48176,-0.0732 -0.69994,-0.17438 -0.24121,-0.11175 -0.2556,-0.47653 -0.44857,-0.65932 -0.68243,-0.64619 -0.86227,-0.34031 -1.53809,-1.35006 -0.22067,-0.32977 -0.22679,-0.76436 -0.40128,-1.12077 -0.28403,-0.58026 -0.97759,-1.2078 -1.41892,-1.58886 -0.1848,-0.15953 -0.0951,-0.4983 -0.24685,-0.68949 -0.14953,-0.18831 -0.40478,-0.26452 -0.57905,-0.43018 -0.35893,-0.34121 -0.72306,-0.68534 -1.01275,-1.08699 -0.11316,-0.15684 -0.0755,-0.39454 -0.19563,-0.54621 -0.27655,-0.34973 -0.69186,-0.57326 -0.96702,-0.92407 -0.12412,-0.15842 -0.10959,-0.39051 -0.20358,-0.5685 -0.38389,-0.7274 -0.97987,-1.32791 -1.37188,-2.05101 -0.6575,-1.21285 -0.83541,-2.70386 -1.41628,-3.95556 -0.17073,-0.36799 -0.40996,-0.7007 -0.59304,-1.06272 -0.1761,-0.34816 -0.18364,-0.79738 -0.40127,-1.12073 -0.16758,-0.24938 -0.4661,-0.38637 -0.65184,-0.62253 -0.61268,-0.77892 -0.92888,-2.00068 -1.2647,-2.93865 -0.53472,-1.49336 -1.06943,-2.98677 -1.60412,-4.48015 -0.22397,-0.62547 -0.30248,-1.32423 -0.6719,-1.87644 -0.10486,-0.15679 -0.35995,-0.12964 -0.51157,-0.24186 -0.12458,-0.0922 -1.14814,-2.85566 -1.5952,-3.29625 -0.61562,-0.60672 -2.75291,0.62125 -3.17531,0.73857 -0.33,0.0916 -0.6807,0.0825 -1.01618,0.15124 -0.18769,0.0381 -0.35026,0.2108 -0.54102,0.19375 -0.75196,-0.068 -1.67313,-0.18701 -2.42835,-0.18436 -1.18742,-1.83339 -1.69611,0.23711 -2.55024,0.25606 -0.0944,0.003 -0.16194,-0.13023 -0.2558,-0.12096 -0.19902,0.0201 -0.36504,0.19889 -0.56509,0.20235 -0.45372,0.008 -0.89711,-0.17769 -1.35083,-0.1691 -0.20324,0.003 -0.37087,0.20132 -0.5741,0.20556 -0.44962,0.009 -0.89086,-0.12686 -1.33889,-0.16535 -4.08875,-0.35225 1.50762,0.16609 -1.84692,0.0422 -1.74655,-0.064 -1.4985,-0.63102 -2.61147,-0.76503 -0.19864,-0.0243 -0.36889,0.24143 -0.56511,0.20235 -0.2358,-0.0468 -0.36134,-0.32805 -0.57903,-0.43017 -0.40251,-0.18888 -0.83278,-0.31556 -1.26148,-0.4334 -1.44321,-0.3967 -2.82514,-0.61049 -4.3207,-0.79055"
       id="path20" />
    <path
       style="fill:none;fill-opacity:0.895165;stroke:#000000;stroke-width:2.4;paint-order:markers fill stroke"
       d="m 219.18166,231.08569 c -2.06817,0.7405 -4.21125,0.71779 -6.37942,0.91328 -0.11518,0.01 -0.21501,0.1474 -0.32654,0.11684 -1.17347,-0.32167 0.20413,-0.25765 -1.14411,-0.22787 -0.27457,-0.0685 -0.491,-0.30246 -0.76741,-0.36276 -0.71799,-0.15665 -1.85505,-0.087 -2.60579,-0.133 -0.63655,-0.0392 -1.27598,0.0705 -1.91285,0.0377 -0.44673,-0.0236 -0.88646,-0.19511 -1.33248,-0.16042 -0.33244,0.0259 -0.61509,0.27037 -0.9418,0.33721 -0.63476,0.12996 -2.39111,-0.28789 -3.10914,-0.37432 -1.68431,-0.20276 -3.01653,-1.05796 -4.59977,-1.54839 -0.28488,-0.0883 -0.60368,-0.0185 -0.88832,-0.10682 -1.02809,-0.32182 -2.88656,-1.32228 -3.92707,-1.38689 -1.63155,-0.10139 -0.85722,0.25522 -2.24244,-0.27326 -0.75482,-0.28797 -3.08916,-1.2177 -3.64869,-1.8812 -0.22391,-0.26547 -0.30103,-0.63785 -0.53672,-0.89292 -0.12796,-0.13857 -0.35101,-0.14289 -0.51161,-0.24185 -2.57422,-1.58616 1.17084,0.66248 -0.96972,-0.92782 -0.49355,-0.36669 -1.20931,-0.3702 -1.60227,-0.91387 -1.09967,-0.81697 -2.08213,-1.69502 -3.23714,-2.47342 -0.44501,-0.29989 -0.95031,-0.49883 -1.42544,-0.74825 -2.28645,-0.19594 -4.42541,-0.85407 -6.46681,-1.81897"
       id="path21" />
    <path
       style="fill:none;fill-opacity:0.895165;stroke:#000000;stroke-width:2.4;paint-order:markers fill stroke"
       d="m 167.47924,227.53705 c 0.99003,1.62801 1.31072,4.76333 2.28712,6.38765 0.37001,0.61561 1.0578,0.99818 1.42786,1.61381 0.60044,0.99894 0.56565,2.42365 1.21396,3.39048 0.20422,0.30459 0.53281,0.51412 0.729,0.82397 0.32108,0.50709 0.40464,1.13015 0.60699,1.69521 0.20234,0.56509 0.40464,1.13017 0.60697,1.69526 0.13026,0.16586 0.29202,0.31122 0.39069,0.49763 0.28023,0.52964 0.30227,1.16479 0.60359,1.68581 0.57418,0.99288 1.45091,1.53689 2.13928,2.41369 0.12358,0.15735 0.0746,0.41111 0.20236,0.56507 0.0149,0.0181 2.60364,2.58298 2.8909,2.7552 0.20622,0.12365 0.48257,0.0716 0.69993,0.17441 0.54891,0.25945 0.76994,1.04061 1.28811,1.23088 0.26616,0.0979 2.24769,0.67102 2.26668,0.66422"
       id="path22" />
    <path
       style="fill:none;fill-opacity:0.895165;stroke:#000000;stroke-width:2.4;paint-order:markers fill stroke"
       d="m 145.53913,213.81047 c -1.19419,-3.33522 0.23827,0.37296 -1.68867,-3.51822 -1.02581,-2.07136 -0.24108,-1.5124 -1.93465,-3.14388 -0.59672,-0.57483 -2.23269,-1.54969 -2.63944,-2.03006 -0.17244,-0.20358 -0.12721,-0.52795 -0.26975,-0.75345 -0.32605,-0.51564 -0.88172,-0.96744 -1.1765,-1.49407 -0.45866,-0.81932 -0.43199,-2.07943 -1.00662,-2.81132 -0.14843,-0.18914 -0.40394,-0.2654 -0.57904,-0.43021 -0.77926,-0.7334 -1.36595,-1.83789 -2.02412,-2.67954 -0.26304,-0.33639 -0.81798,-0.3434 -1.09066,-0.67203 -0.48167,-0.58052 -1.25732,-2.14872 -0.89036,-2.92504"
       id="path23" />
    <path
       style="fill:none;fill-opacity:0.895165;stroke:#000000;stroke-width:2.4;paint-order:markers fill stroke"
       d="m 164.83118,185.80114 c -0.7179,-1.25496 -0.72678,-2.95944 -1.49719,-4.18145 -0.22492,-0.35678 -0.68003,-0.52401 -0.91426,-0.87477 -0.20952,-0.3137 -0.18036,-0.74636 -0.38152,-1.06551 -0.4525,-0.71779 -2.13609,-2.28988 -2.83821,-2.89067 -0.37897,-0.78941 -1.33375,-0.65533 -1.90416,-1.12142 -0.74921,-0.0893 -0.39027,-0.8933 -0.73397,-1.22103 -0.34127,-0.32542 -0.85709,-0.43634 -1.18064,-0.77938 -0.44853,-0.47552 -0.4981,-1.23271 -0.92053,-1.73156 -0.27257,-0.32188 -0.63374,-0.55977 -0.91427,-0.87477 -0.28718,-0.32245 -0.22373,-0.94165 -0.46789,-1.30673 -2.20309,-3.29887 1.32943,2.12806 -1.3714,-1.31213 -0.73003,-0.9299 -1.12703,-2.03273 -1.94367,-2.91045 -0.60296,-0.64803 -1.41383,-1.06725 -2.0869,-1.64213 -0.81088,-0.69256 -1.52868,-1.46262 -2.28568,-2.18689 -1.75471,-1.67888 -3.952,-2.8167 -5.55327,-4.60849 -0.30116,-0.33702 -0.42237,-1.17965 -0.58505,-1.63399 -0.14708,-0.69043 -0.40705,-1.36625 -0.44113,-2.07133 -0.0118,-0.24116 0.31846,-0.4136 0.30957,-0.6549 -0.0218,-0.60191 -0.64215,-1.48813 -0.75344,-2.10428 -0.15083,-0.83456 -0.39686,-1.8097 -0.44409,-2.58811 -0.0245,-0.40443 -0.76291,0.27317 -1.14437,0.40975 -0.53279,0.19071 -1.06553,0.38151 -1.59828,0.57226 -1.53355,0.54908 -4.91252,1.23066 -5.27203,3.03567 -0.10972,0.55156 0.13652,1.93886 0.7852,2.23269 0.17183,0.0779 0.34947,-0.23529 0.53277,-0.19073 0.20111,0.0489 0.26123,0.34135 0.4486,0.4292 0.4225,0.19812 1.5093,-0.0439 1.78904,-0.0397 0.6326,0.009 1.26458,0.35377 1.88441,0.22686 0.46199,-0.0946 0.86991,-0.38233 1.3319,-0.47689 0.81996,-0.16785 4.36214,-0.14263 3.06478,-0.75593"
       id="path24" />
    <path
       style="fill:none;fill-opacity:0.895165;stroke:#000000;stroke-width:2.4;paint-order:markers fill stroke"
       d="m 151.10697,142.32252 c -0.99847,-0.56158 -1.97934,-1.15563 -2.9954,-1.68476 -0.84974,-0.44251 -1.75731,-0.76976 -2.59851,-1.22832 -0.47088,-0.25665 -1.91487,-1.5528 -2.28847,-1.47353 -2.6219,0.55642 -5.24036,1.87634 -7.77693,2.78457 -0.82292,0.29465 -4.17578,1.13683 -4.74755,1.69987 -0.26263,0.2586 -0.23892,0.71462 -0.47255,0.99968 -0.18906,0.23069 -0.49761,0.33703 -0.70379,0.55252 -0.35572,0.37179 -0.8374,1.59022 -0.99346,2.10173 -0.14822,0.48577 0.21446,1.09269 -0.0562,1.52264 -0.31495,0.50095 -1.11952,0.0293 -0.82384,0.8555"
       id="path25" />
    <path
       style="fill:none;fill-opacity:0.895165;stroke:#000000;stroke-width:2.4;paint-order:markers fill stroke"
       d="m 150.38875,145.07573 c -4.71635,1.15026 -9.10506,3.97559 -13.93052,4.6873"
       id="path26" />
    <path
       style="fill:none;fill-opacity:0.895165;stroke:#000000;stroke-width:2.4;paint-order:markers fill stroke"
       d="m 129.07864,151.02803 c -0.20307,-0.0777 -0.4081,-0.15023 -0.60923,-0.23268 -0.15427,-0.0632 -0.29292,-0.16453 -0.4522,-0.21374 -0.13684,-0.0422 -0.50866,-8.8e-4 -0.6003,-0.0115 -0.30602,-0.0366 -0.61477,-0.0656 -0.91402,-0.13941 -0.70263,-0.17315 -1.31482,-0.63087 -1.98489,-0.88294 -0.8387,-0.31548 -1.71384,-0.5533 -2.5565,-0.85821 -1.10606,-0.40021 0.0681,0.0102 -0.70483,-0.49966 -0.0983,-0.0649 -0.22823,-0.0611 -0.33791,-0.10442 -0.12413,-0.0489 -0.2365,-0.12518 -0.36176,-0.171 -0.8336,-0.30494 -1.67678,-0.57653 -2.51883,-0.85222 -0.57858,-0.18943 -1.20271,-0.44722 -1.80242,-0.55347 -0.14881,-0.0264 -0.30427,0.0351 -0.45329,0.0105 -0.16355,-0.0275 -0.30788,-0.12714 -0.46935,-0.16498 -0.60186,-0.14099 -0.33389,0.0323 -0.88597,-0.13819 -0.45111,-0.13939 -0.84421,-0.4632 -1.29276,-0.61109 -0.13131,-0.0433 -0.27542,-0.0379 -0.40674,-0.0811 -0.22647,-0.0746 -0.41541,-0.24783 -0.64672,-0.30571 -0.0413,-0.0114 -0.91807,-0.10754 -0.96205,-0.11621 -0.11566,-0.0227 -0.22224,-0.0816 -0.33791,-0.10442 -0.32338,-0.0637 -0.66675,-0.0196 -0.98212,-0.11485 -0.32863,-0.0389 -0.56634,-0.31028 -0.8727,-0.40522 -0.0669,-0.0209 -0.97093,-0.21248 -1.0565,-0.22278 -0.52497,-0.0633 -0.13321,0.10299 -0.38063,-0.0146"
       id="path27" />
    <path
       style="fill:none;fill-opacity:0.895165;stroke:#000000;stroke-width:2.4;paint-order:markers fill stroke"
       d="m 108.55394,144.70044 c -0.11322,0.0501 -0.21612,0.14171 -0.33963,0.15035 -0.35045,0.0245 -0.67638,-0.26368 -0.96956,-0.40227 -0.43925,-0.20763 -0.89736,-0.36886 -1.33276,-0.57467 -0.37231,-0.17599 -0.78092,-0.44376 -1.17572,-0.55575 -0.10142,-0.0288 -0.21331,-0.007 -0.31407,-0.038 -0.223,-0.0689 -0.41006,-0.23035 -0.63306,-0.29926 -0.38153,-0.11785 -0.68117,-0.17653 -1.03759,-0.3798 -0.0738,-0.0421 -0.13647,-0.1014 -0.20473,-0.15211 -0.0984,-0.0649 -0.19171,-0.13831 -0.29515,-0.19485 -0.17555,-0.096 -0.382,-0.13726 -0.54265,-0.25651 -0.11124,-0.0825 -0.20367,-0.19081 -0.32181,-0.26328 -0.23247,-0.14261 -0.51211,-0.19938 -0.73968,-0.34965 -0.51005,-0.33685 -1.015923,-0.69647 -1.514949,-1.04963 -0.533829,-0.3778 -1.147562,-0.61714 -1.717281,-0.92833 -0.427519,-0.23354 -0.830154,-0.52338 -1.257493,-0.76 -0.430406,-0.23829 -0.90414,-0.37203 -1.347635,-0.58168 -0.227888,-0.10781 -0.477218,-0.17241 -0.699671,-0.27542 -0.06342,-0.0293 -0.01938,-0.0632 -0.108529,-0.0737"
       id="path28" />
    <path
       style="fill:none;fill-opacity:0.895165;stroke:#000000;stroke-width:2.4;paint-order:markers fill stroke"
       d="m 95.488737,138.36628 c -0.225278,-0.0696 -0.606222,-0.4341 -0.675827,-0.20883 -0.0696,0.22529 0.873638,0.33714 0.675827,0.20883 -0.670569,-0.43499 -1.678074,-0.60568 -2.339013,-1.0967 -0.07234,-0.0538 -0.414293,-1.10724 -0.584833,-1.23173 -0.98481,-0.71924 -3.180322,-1.38473 -4.413975,-1.53326 -0.291161,-0.0351 -0.590941,0.0713 -0.879579,0.0195 -0.743115,-0.13366 -1.617883,-0.57713 -2.341559,-0.66426 -0.193067,-0.0229 -0.387408,0.0808 -0.58044,0.0575 -0.132441,-0.0157 -0.22936,-0.15483 -0.361758,-0.17101 -0.580183,-0.0708 -1.1606,0.17176 -1.745093,0.17127 -0.320832,-6e-4 -0.635631,-0.14265 -0.955404,-0.11682 -0.426546,0.0347 -0.823466,0.25356 -1.249331,0.29566 -3.906907,0.38639 1.116613,-0.3849 -1.841397,-0.0953 -0.476248,0.0467 -0.915855,0.27271 -1.428543,0.21096 -1.849021,-0.22263 0.619468,0.002 -0.856709,-0.29432 -0.144383,-0.0289 -0.297293,0.0388 -0.441666,0.01 -0.231171,-0.0463 -0.446958,-0.15214 -0.675829,-0.20881 -0.290727,-0.072 -0.483444,-0.36866 -0.764539,-0.47205 -0.138211,-0.0507 -0.296691,0.0355 -0.441666,0.01 -0.648212,-0.11549 -1.154885,-0.51356 -1.761104,-0.72183 -0.264702,-0.091 -0.510751,-0.0298 -0.71108,-0.12493"
       id="path29" />
    <path
       style="fill:none;fill-opacity:0.895165;stroke:#000000;stroke-width:2.4;paint-order:markers fill stroke"
       d="m 26.664267,140.85157 c 0.06854,0.26714 0.04389,0.57798 0.20548,0.80149 0.310849,0.42994 2.464928,1.44297 3.116489,1.58517 1.060085,0.23137 2.181626,0.0331 3.256659,0.20098 0.351389,0.0549 0.683453,0.21023 1.036515,0.25311 1.107638,0.13453 2.233763,-0.17619 3.324654,-0.25667 0.258951,-0.0193 0.520978,0.0719 0.778146,0.0352 0.2335,-0.0327 0.430168,-0.2375 0.665949,-0.23845 0.262708,-0.001 0.49043,0.22496 0.753036,0.23265 0.192422,0.005 0.355192,-0.15575 0.543723,-0.19467 0.505907,-0.10439 0.584769,0.0873 1.123088,0.19892 0.375561,0.078 0.915421,-0.41057 1.308748,-0.46859 0.570354,-0.0842 0.09852,0.0749 0.49495,0.12331 2.297853,0.28052 -1.135736,-0.28091 1.781784,-0.0386 0.23495,0.0199 0.450551,0.13922 0.675827,0.20883 0.947408,0.29271 1.759795,0.47957 2.423472,1.26079 0.09538,0.11226 0.06801,0.29297 0.148969,0.41606 0.03664,0.0556 0.120576,0.0569 0.180878,0.0855 0.0749,0.0692 0.171496,0.1209 0.224731,0.20799 0.07115,0.11639 0.06996,0.26705 0.137967,0.38532 0.107523,0.18704 0.793522,-0.27435 1.286387,-0.21372 0.105526,0.0137 0.125752,0.19853 0.229577,0.22151 0.348862,0.077 0.719462,-0.004 1.069802,0.066 0.570149,0.11397 0.423814,0.30402 0.904398,0.42752 0.184147,0.0473 0.38158,-0.091 0.56787,-0.053 0.130694,0.0267 0.232398,0.13849 0.361758,0.17099 0.264943,0.0665 0.885758,-0.12984 1.155893,-0.11339 0.169688,0.011 0.32617,0.10271 0.494949,0.12331 0.232889,0.0283 0.429596,-0.20994 0.662595,-0.23725 0.269844,-0.0315 0.542706,0.038 0.814393,0.0324 0.194396,-0.004 0.389008,-0.0914 0.580444,-0.0575 0.197007,0.0348 0.346422,0.21743 0.542639,0.25651 0.09249,0.0184 0.17276,-0.10687 0.26638,-0.0954 0.235907,0.0283 0.443824,0.19449 0.680854,0.21121 0.134493,0.008 0.247024,-0.15371 0.380672,-0.13635 0.19836,0.0263 0.351486,0.19744 0.542637,0.2565 0.262718,0.0812 0.53737,0.11853 0.809021,0.16112 1.35746,0.21285 2.7369,0.28804 4.095346,0.49467 0.239447,0.0365 1.373155,0.5338 1.588318,0.73968 0.183487,0.17553 0.297412,0.42404 0.504826,0.57054 0.303619,0.14317 0.607237,0.28634 0.910853,0.42951 0.104643,0.0136 0.218581,-0.007 0.314069,0.0379 0.133317,0.0625 0.139514,0.28478 0.27276,0.34742 0.405773,0.19075 0.837348,0.0394 1.133642,0.32288"
       id="path42" />
    <path
       style="fill:none;fill-opacity:0.895165;stroke:#000000;stroke-width:2.4;paint-order:markers fill stroke"
       d="m 47.929699,146.98196 c -0.07723,0.50705 -0.261727,1.00916 -0.231703,1.52118 0.0362,0.61736 0.585119,1.63418 0.812949,2.27047 0.256445,0.71623 0.597793,2.19024 0.999672,2.79199 0.277811,0.41599 0.360071,0.38353 0.643852,0.96411 0.08282,0.16946 0.08084,0.37947 0.190756,0.53276 0.352891,0.49209 1.154296,0.76068 1.603956,1.19364 0.197174,0.18986 0.405154,0.51961 0.672512,0.64346 0.158622,0.0734 1.086599,0.16267 1.196063,0.16152 0.319753,-0.003 0.589922,-0.25928 0.903213,-0.32341 1.289939,-0.26403 -0.358385,0.27859 0.846833,-0.15292"
       id="path43" />
    <path
       style="fill:none;fill-opacity:0.895165;stroke:#000000;stroke-width:2.4;paint-order:markers fill stroke"
       d="m 80.956414,143.32296 c -0.204233,0.74485 -1.142558,0.21778 -1.574474,0.56373 -0.05205,0.0416 -0.03005,0.14384 -0.08551,0.18088 -0.235297,0.15713 -0.554119,0.14467 -0.799147,0.28615 -0.336749,0.19444 -0.626343,0.46618 -0.970145,0.64789 -0.248125,0.13111 -0.550821,0.14139 -0.792653,0.28381 -1.305884,0.76891 -0.842241,0.82006 -1.963084,1.31364 -0.345259,0.15204 -0.733813,0.20182 -1.065521,0.3815 -0.223285,0.12099 -0.366172,0.35415 -0.570575,0.50484 -0.506403,0.37334 -1.041951,0.70773 -1.588411,1.01952 -0.534034,0.30472 -1.151609,0.44522 -1.683783,0.75316 -0.830385,0.48052 -0.689651,0.6102 -1.458965,0.97602 -0.211882,0.1007 -0.459532,0.1198 -0.662646,0.23726 -0.258212,0.14924 -0.437611,0.41793 -0.703763,0.55251 -1.1073,0.55995 -2.546969,0.63658 -3.548449,1.4208 -0.132192,0.10352 -0.163761,0.30673 -0.300389,0.40432 -0.460483,0.3289 -1.104295,0.29623 -1.598284,0.57228 -0.43184,0.2413 -0.782912,0.6062 -1.194144,0.88115 -0.21942,0.1467 -0.608345,0.10879 -0.799143,0.28613 -0.533798,0.49602 -1.056883,1.14908 -1.711721,1.51448 -0.689299,0.38463 -0.17065,-0.20264 -1.017834,0.5147 -0.129758,0.10987 -0.179637,0.2937 -0.304194,0.40945 -0.369436,0.34328 -0.68003,0.39376 -1.151022,0.56239 -1.392905,0.49874 0.447625,-0.23492 -1.106196,0.69943 -0.603481,0.36288 -1.39921,0.41825 -2.03345,0.72808 -1.849408,0.90362 0.344986,-0.11017 -1.455216,0.97184 -0.168635,0.10135 -1.012473,0.17918 -1.007494,0.50391 0.0077,0.50451 0.430889,1.20342 0.598168,1.6706 0.311519,0.87005 0.547362,1.87136 0.964649,2.69418 0.388147,0.76533 0.828175,1.47364 1.118488,2.28446"
       id="path44" />
    <path
       style="fill:none;fill-opacity:0.895165;stroke:#000000;stroke-width:2.4;paint-order:markers fill stroke"
       d="m 73.266173,133.2212 c -0.322912,-0.0959 -0.637298,-0.22747 -0.968749,-0.28742 -0.262822,-0.0477 -0.535442,-3.5e-4 -0.800601,-0.033 -0.184744,-0.0222 -0.375965,-0.18482 -0.576203,-0.16496 -0.200906,0.02 -0.393664,0.16766 -0.591565,0.21183 -0.143108,0.0319 -0.965913,0.0722 -1.121956,0.0243 -0.05037,-0.0156 -0.0669,-0.0862 -0.114284,-0.10932 -0.09173,-0.0447 -0.235771,0.12586 -0.376101,0.0595"
       id="path45" />
    <path
       style="fill:none;fill-opacity:0.895165;stroke:#000000;stroke-width:2.4;paint-order:markers fill stroke"
       d="m 48.12096,149.10279 c -0.01205,-0.56646 -0.121352,-1.12462 -0.02151,-1.68824 0.02055,-0.11609 0.09032,-0.22088 0.104403,-0.33793 0.01314,-0.10984 -0.02752,-0.26734 0.01395,-0.38065 0.07695,-0.21023 0.23829,-0.5958 0.40323,-0.74545 0.292692,-0.26554 0.101281,-0.18651 0.273524,-0.2482"
       id="path46" />
    <path
       style="fill:none;fill-opacity:0.895165;stroke:#000000;stroke-width:2.4;paint-order:markers fill stroke"
       d="m 51.661907,165.8069 c 0.258403,0.67558 0.356408,1.4864 0.85422,2.04866 0.104854,0.11842 0.23636,0.2111 0.342853,0.32805 0.115565,0.12691 0.169317,0.3073 0.300103,0.41848 0.138658,0.10251 0.27732,0.20485 0.415979,0.30728 0.01625,0.0455 0.01404,0.1029 0.04883,0.13639 0.08495,0.0818 0.209614,0.11374 0.295165,0.19485 0.03309,0.0315 0.01798,0.0929 0.04608,0.12875 0.07734,0.0985 0.916162,0.21384 1.042263,0.2216 0.476013,0.0281 0.965163,-0.0147 1.435787,0.0141 0.08485,0.004 0.162877,0.0701 0.247478,0.0615 0.16362,-0.0165 0.300371,-0.15579 0.464501,-0.16628 0.126522,-0.007 0.253722,0.0268 0.379833,0.0146 0.139961,-0.0134 0.259358,-0.11402 0.397111,-0.14214 0.858658,-0.17579 1.767992,-0.48761 2.570864,-0.84536 0.08879,-0.0398 0.155173,-0.11938 0.242539,-0.16199 0.10592,-0.0519 0.233755,-0.0556 0.332964,-0.11928 0.536138,-0.34412 0.970774,-0.85044 1.437622,-1.27243 0.281711,-0.37011 0.753229,-0.48149 1.091675,-0.77126 0.691364,-0.59192 1.264991,-1.4623 2.028761,-1.98197 0.837525,-0.56987 0.659247,-0.33548 1.417059,-0.66053 0.232942,-0.0998 0.450507,-0.23327 0.683178,-0.3338 0.603782,-0.26084 1.238445,-0.44342 1.857664,-0.66514 0.644247,-0.23065 1.288488,-0.46136 1.932735,-0.69201 0.324822,-0.11629 0.710804,-0.30742 1.055926,-0.37808 0.04883,-0.009 0.499157,-0.11463 0.551249,-0.0706 0.331403,0.28031 -0.699,0.56762 -0.716491,0.5739 -1.384989,0.49587 -2.769978,0.99178 -4.154967,1.48769 -0.424283,0.15198 -0.8757,0.27245 -1.25566,0.52471 -0.115902,0.0769 -0.194907,0.20354 -0.315069,0.27362 -0.203701,0.1187 -0.468813,0.10929 -0.665946,0.23849 -0.204643,0.13448 -0.372649,0.31926 -0.574881,0.45734 -0.0584,0.0398 -0.135551,0.042 -0.199774,0.0716 -0.407418,0.1891 -0.934432,0.40271 -1.284516,0.69404 -0.170491,0.14187 -0.778674,0.70786 -0.912416,0.86019 -0.04491,0.0511 -0.04856,0.12873 -0.08731,0.18473 -0.294375,0.42565 -0.268376,0.27199 -0.620198,0.69785 -0.07775,0.0942 -0.123097,0.21263 -0.20364,0.30432 -0.08379,0.0955 -0.2066,0.15277 -0.285285,0.25243 -0.06202,0.0784 -0.07195,0.18863 -0.128254,0.27133 -0.369416,0.54256 -0.84925,0.98456 -1.042672,1.61057 -0.01968,0.0638 -0.08681,0.11421 -0.08551,0.18086 0.0017,0.093 0.07398,0.17215 0.09418,0.26305 0.02107,0.0948 0.01156,0.19458 0.02883,0.29023 0.0083,0.0466 0.03179,0.0889 0.04769,0.13318 0.03975,0.11101 0.09827,0.21698 0.119222,0.33299 0.03052,0.16892 0.0087,0.34403 0.03373,0.51385 0.04635,0.31458 0.284348,0.71826 0.291075,1.02277 0.002,0.085 -0.07004,0.16289 -0.06166,0.24749 0.03496,0.35263 0.337959,0.88306 0.429202,1.1987 0.170806,0.59088 0.25542,1.60126 0.848529,1.95017 0.639096,0.37598 1.079457,0.0967 1.717208,0.14422 0.13711,0.009 0.267053,0.0837 0.404513,0.0805 0.284809,-0.006 0.989888,-0.35442 1.279505,-0.45811 0.822971,-0.29467 1.645948,-0.58934 2.468922,-0.884 2.341675,-0.83844 -0.411042,0.17733 2.044355,-0.8314 1.05911,-0.43509 0.666777,-0.14711 1.752352,-0.72178 0.242183,-0.12819 0.458135,-0.30191 0.698567,-0.4334 0.09835,-0.0538 1.314646,-0.62338 1.453313,-0.70364 0.20718,-0.11997 0.39549,-0.26989 0.593234,-0.40483 0.286528,-0.18449 0.562495,-0.38653 0.859549,-0.55357 0.10612,-0.0598 0.238281,-0.0627 0.343844,-0.12312 0.130488,-0.0752 0.229507,-0.19635 0.354741,-0.28012 0.120315,-0.0805 0.26395,-0.1238 0.379514,-0.21098 0.155725,-0.11751 0.271911,-0.28226 0.428677,-0.39834 0.209182,-0.15489 0.459948,-0.24923 0.66407,-0.41075 0.0529,-0.0418 0.04265,-0.13162 0.08647,-0.1829 0.150804,-0.17657 0.321323,-0.33757 0.50398,-0.48096 0.03708,-0.0293 0.09861,-0.0161 0.133188,-0.0476 0.101221,-0.0942 0.167269,-0.22102 0.262868,-0.32092 0.276011,-0.28848 0.07439,0.003 0.442952,-0.2337 0.188245,-0.12081 0.352529,-0.27544 0.527826,-0.41439 0.319757,-0.25345 0.609694,-0.54921 0.957323,-0.76284 1.056755,-0.64943 0.71303,-0.22497 1.578076,-0.64152 0.219771,-0.10589 0.410723,-0.26471 0.627621,-0.37636 0.266484,-0.13721 0.55303,-0.23267 0.820084,-0.36873 0.238813,-0.12182 0.454793,-0.28575 0.695532,-0.40368 0.284216,-0.13922 0.839638,-0.22237 1.062843,-0.45564 0.159353,-0.16655 0.261268,-0.17864 0.467558,-0.29868 0.445656,-0.25943 0.863616,-0.56508 1.312592,-0.81872 0.617316,-0.34871 1.253101,-0.66376 1.884081,-0.98709 0.414526,-0.21239 0.854743,-0.37721 1.252197,-0.62005 0.932837,-0.56994 0.63161,-0.72154 1.460748,-1.01841"
       id="path47" />
    <path
       style="fill:none;fill-opacity:0.895165;stroke:#000000;stroke-width:2.4;paint-order:markers fill stroke"
       d="m 66.770846,175.08667 c -0.945862,0.52936 -0.303719,0.0247 -0.933702,1.55915 -0.19091,0.46502 -0.461475,0.89495 -0.648038,1.36173 -0.281857,0.70519 -0.241898,1.01552 -0.345721,1.75968 -0.287788,2.06263 -0.434209,4.15285 0.163183,6.167 0.192206,0.64802 0.327913,1.38264 0.613966,2.0115 0.219901,0.48332 0.533056,0.88089 0.885233,1.27979 0.08987,0.10181 0.27082,0.0795 0.368346,0.17412 0.155532,0.1507 -0.07436,0.3293 0.3183,0.29915 0.462847,-0.0355 1.473753,-0.52768 1.98643,-0.71125 1.132202,-0.40538 2.277875,-0.74516 3.302877,-1.40164 1.259481,-0.80664 2.406139,-1.8321 3.623054,-2.70481 0.816961,-0.58589 1.785909,-1.20336 2.651765,-1.71318 0.292283,-0.17215 0.627748,-0.2666 0.911404,-0.45262 1.006839,-0.66027 0.93548,-0.83611 1.823485,-1.44026 0.480023,-0.32658 0.992669,-0.60301 1.476644,-0.9237 0.330705,-0.2191 0.627182,-0.48885 0.966143,-0.69496 0.613266,-0.37292 1.251957,-0.70258 1.885832,-1.03929 0.310544,-0.16494 0.650567,-0.27574 0.946716,-0.46534 0.279375,-0.17882 0.500635,-0.43652 0.768362,-0.63236 0.418057,-0.30579 0.770881,-0.54847 1.145554,-0.94008 0.338765,-0.35405 0.711466,-0.1804 0.934811,-0.65346"
       id="path48" />
    <path
       style="fill:none;fill-opacity:0.895165;stroke:#000000;stroke-width:2.4;paint-order:markers fill stroke"
       d="m 88.105157,177.87587 c 0.543217,0.74226 0.176582,1.40639 0.272425,2.16809 0.04705,0.37431 0.254344,0.71035 0.381514,1.06553 0.06358,0.17758 0.06577,0.39148 0.190754,0.53276 0.616885,0.69723 1.411334,0.81421 2.256531,1.17426 0.462082,0.19685 1.925707,0.74216 2.408566,1.02582 0.536575,0.31521 0.295107,0.35893 0.952082,0.56069 1.947753,0.59814 3.930395,0.28842 5.916171,0.18658 0.65471,-0.0335 1.3231,0.12997 1.97743,0.0475 0.58814,-0.0744 1.59975,-0.57231 2.04555,-0.58212 1.32251,-0.0293 -0.69504,0.46904 0.80901,0.16114 0.27718,-0.0568 0.52272,-0.34656 0.79913,-0.28615 0.36198,0.079 0.68061,0.30928 1.04396,0.3818 0.70043,0.13973 0.4126,-0.1456 0.98002,-0.20063 1.14453,-0.11069 2.4162,0.0944 3.55309,0.10473 0.44737,0.004 0.89763,-0.0831 1.34179,-0.0299 0.19862,0.0243 0.35148,0.19743 0.54264,0.25649 0.42564,0.13152 1.11831,0.22421 1.57034,0.1891 0.94921,-0.0738 2.01474,-0.3401 2.93434,-0.57251 0.59154,-0.14928 1.1394,-0.47297 1.73146,-0.61995 2.71215,-0.67332 -1.02349,0.3263 1.76841,-0.17362 1.34598,-0.24105 3.21603,-1.23681 4.59186,-1.64413 1.81573,-0.53764 0.55196,-0.0882 2.31768,-0.35538 1.20213,-0.18186 4.28614,-1.21845 5.42074,-1.77282 0.20051,-0.098 1.59173,-0.79462 1.76929,-0.93403 0.69686,-0.54711 -0.096,-0.28869 0.65607,-0.68569 0.1668,-0.0881 0.40244,-0.0539 0.53278,-0.19073 0.11756,-0.12279 0.0153,-0.36345 0.12329,-0.49495 0.0896,-0.10944 0.28828,-0.0557 0.39959,-0.14308 0.13373,-0.10496 0.18665,-0.28658 0.30418,-0.40945 0.13441,-0.14053 0.33214,-0.20389 0.4851,-0.32393"
       id="path53" />
    <path
       style="fill:none;fill-opacity:0.895165;stroke:#000000;stroke-width:0.1;stroke-dasharray:none;paint-order:markers fill stroke"
       d="m 152.21534,166.77919 c -1.97814,1.70616 -5.36422,-0.71844 -7.4381,-0.67262 -0.26175,0.006 -0.47774,0.25995 -0.73951,0.2648 -0.65007,0.0119 -1.63782,-0.88984 -2.25898,-1.06783 -0.27437,-0.0787 -0.59297,0.0215 -0.85012,-0.10235 -0.81331,-0.39173 -1.54911,-1.08511 -2.55802,-1.20915 -0.72825,-0.0896 -1.49538,0.53438 -2.38106,0.42754 -0.66212,-0.0799 -1.24932,-0.51181 -1.91155,-0.59063 -1.27149,-0.15131 -2.56923,0.23522 -3.8405,0.0822 -0.37458,-0.045 -0.64622,-0.46983 -1.02322,-0.48369 -0.39989,-0.014 -0.73289,0.4525 -1.13016,0.40469 -0.56183,-0.0677 -0.96999,-0.691 -1.53482,-0.72551 -4.03643,-0.24674 0.27989,1.09908 -2.39519,0.43258 -3.55949,-0.88681 -6.49708,-3.31847 -9.96046,-4.39532 -0.44706,-0.139 -0.93882,-0.14339 -1.3617,-0.34419 -1.47486,-0.70064 -2.79773,-1.70668 -4.30031,-2.34571 -6.52113,-2.77333 0.37316,0.40402 -3.41664,-0.0616 -0.56165,-0.0691 -0.9731,-0.65691 -1.53481,-0.72551 -1.36263,-0.16636 -0.98217,0.91115 -1.9896,0.17781"
       id="path57" />
    <path
       style="fill:none;fill-opacity:0.895165;stroke:#000000;stroke-width:2.4;stroke-dasharray:none;paint-order:markers fill stroke"
       d="m 69.225805,132.23399 c -1.197566,0.076 -9.878877,0.6696 -12.490068,0.72436 -0.923485,0.0196 -1.847264,-0.0866 -2.770498,-0.0564 -0.663665,0.0211 -1.085947,0.56701 -1.832792,0.44373 -2.835956,-0.46812 0.655782,-0.60083 -2.97107,-0.4465 -0.704061,0.0299 -1.408811,0.0517 -2.11146,0.10541 -0.409896,0.0314 -0.803048,0.22266 -1.214093,0.21665 -0.471537,-0.006 -0.829745,-0.46126 -1.279011,-0.60458 -0.359182,-0.11453 -2.020321,0.82131 -2.572248,0.921 -0.207538,0.0376 -0.423899,-0.0164 -0.632506,0.0145 -0.131957,0.0197 -0.244295,0.15084 -0.376719,0.13489 -0.187279,-0.0226 -0.324386,-0.21883 -0.511605,-0.24184 -0.555426,-0.0683 -1.347659,0.55646 -1.946338,0.48439 -1.073618,-0.12925 -2.171643,-0.60499 -3.244017,-0.75105 -0.247353,-0.0336 -0.581934,0.31355 -0.830346,0.2973 -1.312374,-0.0862 -1.108068,-0.22865 -2.409152,-0.20015 -0.266691,0.006 -0.489533,0.23085 -0.753438,0.26977 -0.473626,0.0698 -0.634869,-0.2615 -1.141741,-0.22872 -0.265367,0.0173 -0.485501,0.25509 -0.751059,0.26892 -0.446757,0.0231 -0.885227,-0.1703 -1.332485,-0.16042 -0.1757,0.004 -0.72002,0.29717 -0.941799,0.33721 -2.572059,0.46453 0.500248,-0.0512 -1.332486,-0.16042 -0.441706,-0.0263 -2.074716,0.53038 -2.651215,0.73679 -0.694867,0.24878 -1.222403,0.68738 -1.739898,1.22833 -0.05224,0.0546 -0.0299,0.16998 -0.09688,0.20496 -0.295603,0.15427 -0.679437,0.1314 -0.941797,0.33719 -0.260926,0.2047 -0.304418,0.60499 -0.547251,0.83083 -0.145895,0.13568 -0.375151,0.13431 -0.562727,0.2015 -0.227094,0.15214 -0.492511,0.25874 -0.681287,0.45644 -0.393424,0.41201 -0.552918,1.02149 -0.976104,1.40289 -0.195065,0.17579 -0.470643,0.25333 -0.649912,0.44522 -0.0045,0.005 -0.471193,1.0013 -0.476978,1.00904 -0.494674,0.66185 -0.37442,0.4425 0.02813,1.56679 0.174666,0.48782 0.268083,1.0656 0.706208,1.38603 1.272347,0.93056 2.91558,1.16343 4.412926,0.89142 1.476412,-0.26822 0.563577,-0.42689 2.206842,-0.36516 0.264932,0.01 0.598052,-0.25293 0.847631,-0.34228 1.125775,-0.40309 3.659876,-1.26772 3.408751,-2.00597"
       id="path66"
       sodipodi:nodetypes="csssssssssssssssssssssssssscsscssssssc" />
    <path
       style="fill:none;fill-opacity:0.895165;stroke:#000000;stroke-width:2;stroke-dasharray:none;paint-order:markers fill stroke"
       d="m 410.05759,260.88549 c -0.22339,-0.35751 -0.31283,-1.2959 -0.67032,-1.07246 -0.35752,0.22339 1.07339,1.19597 0.67032,1.07246 -0.79329,-0.24306 -1.3119,-1.01824 -2.00107,-1.48019 -0.42872,-0.28741 -4.28499,-1.89336 -4.58655,-1.94676 -0.38292,-0.068 -0.77231,0.12942 -1.16092,0.1151 -0.66648,-0.0242 -1.32065,-0.21718 -1.98745,-0.23063 -0.74992,-0.0151 -1.49782,0.20324 -2.24558,0.14521 -1.21631,-0.0951 -2.31868,-0.81657 -3.52887,-0.97121 -1.40231,-0.17923 -4.76083,-0.19126 -6.05671,-0.083 -0.73328,0.0613 -1.42646,0.39542 -2.15975,0.45675 -4.30151,0.36006 -1.12331,-0.62349 -5.8844,0.13882 -0.57008,0.0912 -1.05875,0.50438 -1.63056,0.58382 -1.56318,0.2172 -4.35921,0.003 -5.97378,0.0418 -1.26076,0.0299 -2.51791,0.15108 -3.77816,0.19805 -4.54043,0.16938 -2.12537,-0.0363 -6.54307,0.1509 -3.2213,0.13616 -6.68571,0.63454 -9.90733,0.19782 -2.22035,-0.30098 -2.27032,-0.902 -4.38431,-0.86682 -4.4128,0.0734 -8.85638,0.70166 -13.27191,0.78834 -0.8446,0.0168 -1.6856,-0.27671 -2.52656,-0.19698 -0.5845,0.0554 -1.07121,0.58288 -1.65817,0.59372 -1.01117,0.0188 -1.98049,-0.47215 -2.99119,-0.50786 -3.40216,-0.11979 -8.0106,0.56387 -11.30251,0.85066 -2.51405,0.21907 -5.03132,0.40236 -7.54967,0.56493 -12.26271,0.79165 -4.63544,0.3831 -14.32415,0.4087 -4.99254,0.0132 -10.02436,0.10207 -15.00755,-0.35558 -5.2392,-0.48121 -5.7088,-1.03961 -11.31643,-2.5306 -3.98498,-1.05956 -7.85669,-1.88187 -11.92582,-2.52278 -1.71029,-0.26938 -3.38976,-0.82452 -5.12049,-0.87138 -2.15446,-0.0582 -4.29574,0.35891 -6.44639,0.49953 -3.84881,0.25171 -7.77058,0.26294 -11.5847,0.51328 -0.8928,0.0587 -1.79133,0.12641 -2.68355,0.0596 -1.5425,-0.11604 -4.20901,-0.89145 -5.70907,-0.35439"
       id="path69" />
    <path
       style="fill:none;fill-opacity:0.895165;stroke:#000000;stroke-width:2;stroke-dasharray:none;paint-order:markers fill stroke"
       d="m 150.36907,166.94312 c -1.43442,-0.3452 -2.86792,-0.6943 -4.30327,-1.0356 -1.84156,-0.43788 -3.7125,-0.74808 -5.54941,-1.20509 -1.37098,-0.34104 0.51766,-0.28857 -1.42318,-0.35975 -1.23664,-0.0452 -2.98,0.29782 -4.08822,-0.043 -1.09911,-0.3379 -2.15821,-0.74943 -3.31146,-0.9394 -1.16616,-0.1921 -2.38485,-0.23587 -3.56222,-0.43057 -1.12627,-0.18622 -0.67656,-0.39659 -2.28826,-0.4557 -0.54957,-0.0198 -1.09192,0.15079 -1.64176,0.16277 -0.50778,0.0113 -1.01643,-0.1523 -1.52083,-0.093 -0.39747,0.0463 -0.7364,0.33354 -1.13017,0.40464 -0.99429,0.17952 -2.26232,0.004 -3.20074,-0.12508 -0.27915,-0.0384 -0.49502,-0.27807 -0.7642,-0.36123 -0.93732,-0.28962 -1.70986,-1.02777 -2.5037,-1.651 -0.35015,-0.27487 -0.58826,-0.68729 -0.96723,-0.92081 -0.32118,-0.1979 -0.68215,-0.32244 -1.02321,-0.48366 -0.25581,-0.12087 -0.4972,-0.27882 -0.76741,-0.36274 -0.0629,-0.0196 -0.12644,0.0948 -0.18601,0.0666 -0.21572,-0.10198 -0.35915,-0.32469 -0.57503,-0.42633 -0.13492,-0.0636 -0.30312,-0.006 -0.44416,-0.0535 -1.30299,-0.44763 -2.54193,-1.31954 -3.76959,-1.6254 -0.99252,-0.24727 -1.78194,-1.35003 -2.83378,-1.48694 -0.98905,-0.12881 -2.17614,-0.1142 -3.1158,-0.55805"
       id="path70" />
  </g>
</svg>
